<svg 
 xmlns="http://www.w3.org/2000/svg"
 xmlns:xlink="http://www.w3.org/1999/xlink"
 width="2301.5px" height="1591.5px">
<path fill-rule="evenodd"  stroke="rgb(0, 0, 0)" stroke-width="0px" stroke-linecap="butt" stroke-linejoin="miter" fill="rgb(33, 96, 253)"
 d="M576.949,485.176 L681.30,240.530 L701.846,167.657 L707.51,126.15 M535.316,250.940 L228.275,693.385 L249.91,688.180 L535.316,250.940 ZM139.806,787.80 L498.887,302.993 L431.234,344.635 L431.234,344.635 L269.908,542.434 L72.153,781.875 L4.500,880.774 L51.336,833.927 L139.806,781.875 C139.806,781.875 294.245,867.712 342.765,891.185 C387.465,912.809 524.908,995.289 524.908,995.289 C672.434,1076.318 979.415,1364.239 1008.887,1411.708 C1024.77,1436.173 899.602,1271.167 899.602,1271.167 L816.336,1177.473 C771.491,1122.839 222.796,685.271 228.275,693.385 L249.91,688.180 L550.928,922.416 L670.622,1016.110 L764.295,1099.394 L826.744,1156.652 L936.30,1265.962 L1092.152,1474.171 L941.234,1151.446 C896.96,1061.625 544.150,456.128 556.132,479.971 L576.949,474.766 L821.540,891.185 L899.602,1036.931 L1055.724,1344.40 M4.500,880.774 L212.663,990.84 L431.234,1125.420 L597.765,1239.935 C597.765,1239.935 687.159,1304.77 696.642,1312.809 C706.126,1321.540 817.641,1422.754 826.744,1432.529 C835.848,1442.304 941.234,1541.839 941.234,1541.839 C941.234,1541.839 992.4,1582.368 998.479,1588.686 C1004.954,1595.4 1066.132,1562.660 1066.132,1562.660 L1107.765,1536.634 L1170.214,1526.223 L1191.30,1547.44 L1258.683,1562.660 L1367.969,1463.760 C1367.969,1463.760 1452.728,1401.645 1461.642,1396.92 C1470.556,1390.540 1485.816,1371.952 1498.71,1370.66 C1504.415,1369.90 1573.937,1331.332 1596.948,1318.14 C1619.960,1304.696 1669.806,1276.372 1669.806,1276.372 L1784.295,1219.114 L1893.581,1167.62 L2049.704,1104.599 L2169.397,1057.752 L2294.295,1010.905 L2299.499,984.879 L2226.642,917.211 L2200.622,932.826 C2200.622,932.826 2110.681,973.507 2091.336,979.674 C2071.991,985.840 1877.969,1073.368 1877.969,1073.368 L1695.826,1161.857 C1695.826,1161.857 1570.778,1230.481 1555.316,1234.730 C1539.854,1238.979 1416.133,1320.617 1399.193,1333.630 C1382.254,1346.642 1310.724,1401.298 1310.724,1401.298 L1279.500,1427.324 L1258.683,1463.760 M2299.499,984.879 L2211.30,875.569 L2226.642,917.211 M2200.622,865.158 C2200.622,865.158 2197.774,866.939 2193.130,869.842 C2172.670,882.632 2117.357,917.211 2117.357,917.211 L1711.438,1125.420 L1472.51,1255.551 C1472.51,1255.551 1357.144,1336.130 1341.948,1349.245 C1326.753,1362.361 1225.513,1459.535 1211.846,1474.171 C1198.180,1488.807 1367.969,1302.398 1367.969,1302.398 L1425.214,1255.551 L1513.683,1193.88 L1622.969,1120.215 L1773.887,1021.315 L1872.765,948.442 L2002.867,865.158 L2132.969,781.875 L2200.622,865.158 ZM2211.30,880.774 L2195.418,870.364 M2127.765,781.875 L1680.214,266.556 L1648.989,271.761 M1200.911,1472.852 C1253.401,1329.48 1280.803,1301.46 1315.928,1250.346 C1334.100,1224.116 1368.955,1192.306 1388.785,1172.267 C1410.971,1149.848 1432.51,1123.598 1440.826,1115.10 C1458.681,1097.534 1633.43,921.964 1643.785,906.800 C1675.91,862.607 1841.540,724.617 1841.540,724.617 L1966.438,615.307 L1555.316,172.862 L1446.30,276.967 M1196.234,1494.992 C1194.312,1487.135 1206.642,1396.92 1206.642,1396.92 C1206.642,1396.92 1226.458,1313.605 1227.459,1302.398 C1228.459,1291.191 1315.928,1026.521 1315.928,1026.521 L1492.867,381.71 L1310.724,37.526 L1295.112,136.425 M1196.234,157.246 L1222.255,27.115 L1378.377,355.45 L1331.540,589.281 L1274.295,859.953 L1232.663,1078.573 L1196.234,1344.40 L1191.30,1500.197 L1243.71,1146.241 L1305.520,823.516 C1305.520,823.516 1325.627,714.128 1326.336,703.796 C1327.46,693.464 1351.291,580.602 1352.357,573.665 C1353.422,566.729 1378.377,427.918 1378.377,427.918 L1388.785,355.45 L1237.867,27.115 L1237.867,58.347 M1154.602,146.836 L1154.602,27.115 L1175.418,84.373 L1211.846,204.93 L1237.867,329.19 L1227.459,625.717 L1196.234,1083.778 L1185.826,1489.787 L1170.214,1500.197 L1170.214,1021.315 L1170.214,651.744 L1180.622,344.635 C1180.379,344.863 1167.407,258.860 1147.65,180.260 C1137.242,142.302 1130.258,102.193 1128.581,99.989 C1123.711,93.586 1118.173,11.500 1118.173,11.500 C1118.173,11.500 1116.863,66.447 1118.173,73.962 C1119.483,81.478 1118.173,276.967 1118.173,276.967 L1107.765,276.967 M1185.826,1068.163 L1185.826,610.102 L1191.30,339.429 L1165.10,204.93 L1149.398,120.809 L1128.581,53.141 L1123.377,11.500 M1159.806,1484.581 L1149.398,1135.831 L1144.193,948.442 L1133.785,615.307 L1118.173,344.635 C1118.173,344.635 1115.146,290.514 1112.969,287.377 C1110.792,284.240 1107.765,245.735 1107.765,245.735 L1097.357,198.888 L1097.357,146.836 C1097.357,146.836 1086.56,25.952 1086.949,16.705 C1087.841,7.458 1066.132,16.705 1066.132,16.705 L1066.132,89.578 L1071.336,162.451 C1071.336,162.451 1071.700,164.220 1072.356,167.404 C1078.256,196.68 1107.765,339.429 1107.765,339.429 M1071.336,162.451 L1071.336,183.272 L1081.744,542.434 L1102.561,865.158 L1118.173,1125.420 L1133.785,1255.551 L1144.193,1468.966 L1107.765,1291.988 L1071.336,1167.62 L993.275,896.390 L951.642,750.643 L904.806,604.896 L837.153,381.71 C837.153,381.71 845.389,337.383 847.561,323.814 C849.732,310.244 857.969,235.325 857.969,235.325 L868.377,120.809 L868.377,53.141 L951.642,214.504 L1008.887,360.250 L1055.724,516.407 L1086.949,589.281 M868.377,79.168 C868.377,79.168 854.831,49.419 852.765,53.141 C850.699,56.864 852.765,115.604 852.765,115.604 L842.357,157.246 L847.561,219.709 L795.520,396.687 C795.520,396.687 866.337,588.929 868.377,594.486 C870.417,600.43 904.806,698.591 904.806,698.591 L962.50,859.953 L1009.694,1002.388 C1019.57,1024.374 1128.835,1407.100 1128.581,1406.503 M842.357,157.246 L837.153,219.709 L779.908,396.687 C779.908,396.687 820.527,501.680 821.540,511.202 C822.554,520.725 863.173,636.128 863.173,636.128 L910.10,766.259 L967.255,917.211 L1029.704,1109.804 L1066.132,1224.320 L1092.152,1323.219 L1118.173,1416.913 M795.520,396.687 C795.520,396.687 771.771,396.840 779.908,401.892 M842.357,157.246 L842.357,136.425 L837.153,131.220 L826.744,115.604 L816.336,99.989 L811.132,79.168 L790.316,79.168 L779.908,110.399 L769.499,167.657 L764.295,188.478 L764.295,235.325 L712.255,417.508 L774.704,568.460 L837.153,709.1 L920.418,901.595 L967.255,1010.905 L1008.887,1109.804 C1008.887,1109.804 1047.341,1218.807 1050.520,1224.320 C1053.699,1229.832 1097.357,1338.835 1097.357,1338.835 M556.132,479.971 L644.602,292.582 L660.214,250.940 L691.438,131.220 L707.51,120.809 C707.51,120.809 716.857,134.570 722.663,141.630 C728.468,148.690 738.275,157.246 738.275,157.246 L764.295,188.478 L759.91,235.325 L686.234,422.713 L722.663,500.792 L811.132,698.591 C811.132,698.591 843.30,762.654 842.357,766.259 C841.684,769.864 889.193,880.774 889.193,880.774 L972.459,1083.778 C972.459,1083.778 1022.527,1211.625 1024.499,1219.114 C1026.472,1226.604 1081.744,1370.66 1081.744,1370.66 L993.275,1161.857 L930.826,1042.136 L816.336,849.543 L655.10,604.896 M535.316,250.940 C535.316,250.940 542.658,253.272 545.724,256.146 C548.790,259.20 634.193,318.608 634.193,318.608 "/>
</svg>